<svg xmlns="http://www.w3.org/2000/svg" width="1em" height="1em" viewBox="0 0 15.533 15.533">
  <g id="그룹_1026" data-name="그룹 1026" transform="translate(-328.502 -183.932)">
    <path id="패스_1176" data-name="패스 1176" d="M761.5,1461.465a1,1,0,0,1-.707-1.707l13.533-13.533a1,1,0,0,1,1.414,1.414l-13.533,13.533A1,1,0,0,1,761.5,1461.465Z" transform="translate(-432 -1262)" fill="#fff"/>
    <path id="패스_1177" data-name="패스 1177" d="M0,14.533a1,1,0,0,1-.707-.293,1,1,0,0,1,0-1.414L12.826-.707a1,1,0,0,1,1.414,0,1,1,0,0,1,0,1.414L.707,14.241A1,1,0,0,1,0,14.533Z" transform="translate(329.502 198.465) rotate(-90)" fill="#fff"/>
  </g>
</svg>
