<svg xmlns="http://www.w3.org/2000/svg" width="1em" height="1em" viewBox="0 0 14.069 14.069">
  <g id="그룹_671" data-name="그룹 671" transform="translate(3450.941 -3623.959) rotate(-45)">
    <path id="패스_49" data-name="패스 49" d="M-4995.582,148.732h-13.265a1.658,1.658,0,0,1-1.658-1.658,1.658,1.658,0,0,1,1.658-1.658h13.265a1.658,1.658,0,0,1,1.658,1.658A1.658,1.658,0,0,1-4995.582,148.732Z" transform="translate(-0.496 -14.784)" fill="#222"/>
    <path id="패스_50" data-name="패스 50" d="M14.922,3.316H1.658A1.658,1.658,0,0,1,1.658,0H14.922a1.658,1.658,0,0,1,0,3.316Z" transform="translate(-5004.368 140.58) rotate(-90)" fill="#222"/>
  </g>
</svg>
